<svg
   version="1.1"
   id="svg46"
   width="85.891876mm"
   height="30.036945mm"
   viewBox="0 0 324.63074 113.52546"
   sodipodi:docname="UTEC-Logo -transp- mit Text.svg"
   inkscape:version="1.1 (c68e22c387, 2021-05-23)"
   xmlns:inkscape="http://www.inkscape.org/namespaces/inkscape"
   xmlns:sodipodi="http://sodipodi.sourceforge.net/DTD/sodipodi-0.dtd"
   xmlns="http://www.w3.org/2000/svg"
   xmlns:svg="http://www.w3.org/2000/svg">
  <defs
     id="defs50">
    <rect
       x="123"
       y="69.25"
       width="217.5"
       height="48.5"
       id="rect5959" />
  </defs>
  <sodipodi:namedview
     id="namedview48"
     pagecolor="#ffffff"
     bordercolor="#666666"
     borderopacity="1.0"
     inkscape:pageshadow="2"
     inkscape:pageopacity="0.0"
     inkscape:pagecheckerboard="true"
     showgrid="false"
     inkscape:snap-grids="true"
     inkscape:zoom="2.8284271"
     inkscape:cx="111.89965"
     inkscape:cy="7.6013979"
     inkscape:window-width="1920"
     inkscape:window-height="1017"
     inkscape:window-x="-8"
     inkscape:window-y="-8"
     inkscape:window-maximized="1"
     inkscape:current-layer="g993"
     inkscape:object-paths="true"
     inkscape:snap-intersection-paths="true"
     inkscape:snap-nodes="true"
     showguides="true"
     fit-margin-top="0"
     fit-margin-left="0"
     fit-margin-right="0"
     fit-margin-bottom="0"
     showborder="false"
     units="mm"
     inkscape:document-units="mm" />
  <g
     inkscape:groupmode="layer"
     id="layer2"
     inkscape:label="UTEC Logo Hintergrund"
     transform="translate(311.04632,5.3640361)" />
  <g
     inkscape:groupmode="layer"
     id="layer3"
     inkscape:label="UTEC Logo"
     style="display:inline;opacity:1"
     transform="translate(311.04632,5.3640361)">
    <g
       id="g993"
       transform="matrix(0.22224854,0,0,0.22224854,-241.91673,-4.1718869)">
      <path
         id="path69219"
         style="fill:#97989c;fill-opacity:1;stroke:none;stroke-width:0.347532px;stroke-linecap:butt;stroke-linejoin:miter;stroke-opacity:1"
         d="M 12.720703 0 L 12.720703 47.085938 C 38.764287 32.79562 63.807677 26.822409 93.785156 22.195312 L 93.785156 0 L 12.720703 0 z M 93.785156 31.714844 C 65.936168 34.463505 35.251282 44.431181 12.720703 58.832031 L 12.720703 113.38672 L 93.785156 113.38672 L 93.785156 104.31055 L 20.224609 104.31055 L 20.224609 102.08984 L 93.785156 102.08984 L 93.785156 94.777344 C 76.354582 92.259126 75.780099 67.981286 93.785156 64.931641 L 93.785156 31.714844 z M 20.353516 65.304688 L 23.658203 65.304688 L 23.658203 84.857422 C 23.658203 94.073448 37.784907 94.198634 37.855469 84.857422 L 37.855469 65.304688 L 41.160156 65.304688 L 41.160156 84.857422 C 41.160156 97.984351 20.481431 98.410053 20.353516 84.857422 L 20.353516 65.304688 z M 43.167969 65.304688 L 60.535156 65.304688 L 60.535156 68.369141 L 53.46875 68.369141 L 53.46875 94.433594 L 50.162109 94.433594 L 50.162109 68.369141 L 43.167969 68.369141 L 43.167969 65.304688 z M 62.664062 65.304688 L 77.78125 65.304688 L 77.78125 68.369141 L 65.96875 68.369141 L 65.96875 76.974609 L 77.427734 76.974609 L 77.427734 79.960938 L 65.96875 79.960938 L 65.96875 91.359375 L 77.78125 91.359375 L 77.78125 94.433594 L 62.664062 94.433594 L 62.664062 65.304688 z M 93.785156 67.958984 C 80.617617 70.72963 80.222647 88.842732 93.785156 91.767578 L 93.785156 67.958984 z "
         transform="matrix(4.4994674,0,0,4.4994674,-311.04632,-5.3640361)" />
      <path
         style="opacity:1;fill:#01b0f1;fill-opacity:1;stroke:none;stroke-width:1px;stroke-linecap:butt;stroke-linejoin:miter;stroke-opacity:1"
         d="M -311.04632,240.69801 C -172.22661,139.3316 4.6191989,95.589371 164.20701,86.65567 v 31.24357 c -152.929989,7.63864 -320.79085,52.72483 -457.92537,149.28608 z"
         id="path4542"
         sodipodi:nodetypes="ccccc" />
      <path
         style="opacity:1;fill:#ed3338;fill-opacity:1;stroke:none;stroke-width:1px;stroke-linecap:butt;stroke-linejoin:miter;stroke-opacity:1"
         d="M -290.22214,272.54926 C -160.12499,183.06419 9.0580893,133.33756 164.20808,124.04038 l -0.0129,9.93366 c -145.386078,5.70615 -321.97802,57.65049 -449.08662,146.6947 z"
         id="path4542-8"
         sodipodi:nodetypes="ccccc" />
      <path
         style="opacity:1;fill:#97989c;fill-opacity:1;stroke:none;stroke-width:0.3;stroke-linecap:butt;stroke-linejoin:miter;stroke-miterlimit:4;stroke-dasharray:none;stroke-opacity:1"
         d="M 158.13901,317.20025 V 299.25826 C 143.30939,288.28375 129.21319,285.09774 110.93963,286.7955 v 13.62245 c 19.61089,-2.6236 35.11341,4.33655 47.19938,16.7823"
         id="path63717"
         sodipodi:nodetypes="ccccc"
         inkscape:original-d="M 158.13901,317.20025 V 299.25826 C 143.30939,288.28375 129.21319,285.09774 110.93963,286.7955 v 13.62245 c 19.61089,-2.6236 35.11341,4.33655 47.19938,16.7823" />
      <path
         style="fill:#97989c;fill-opacity:1;stroke:none;stroke-width:0.3;stroke-linecap:butt;stroke-linejoin:miter;stroke-miterlimit:4;stroke-dasharray:none;stroke-opacity:1"
         d="m 158.13901,390.81301 v 17.89302 c -13.82255,10.2004 -31.56024,14.6275 -47.19938,12.37608 V 407.5455 c 15.12233,1.85384 30.66812,-1.44443 47.19938,-16.73249"
         id="path65508"
         sodipodi:nodetypes="ccccc" />
      <rect
         style="opacity:1;fill:#97989c;fill-opacity:1;stroke:none;stroke-width:0.179495;stroke-miterlimit:4;stroke-dasharray:none;stroke-opacity:1"
         id="rect68595"
         width="88.19239"
         height="10.000001"
         x="110.93963"
         y="453.98166" />
    </g>
    <text
       xml:space="preserve"
       transform="matrix(1.2495633,0,0,1.2495633,-341.7673,-24.324095)"
       id="text5957"
       style="font-style:normal;font-weight:normal;font-size:10.6667px;line-height:1.25;font-family:sans-serif;white-space:pre;shape-inside:url(#rect5959);fill:#606164;fill-opacity:1;stroke:none"><tspan
         x="123"
         y="78.981554"
         id="tspan872"><tspan
           style="font-family:Arial;-inkscape-font-specification:Arial"
           id="tspan870">Ingenieurb&#252;ro
</tspan></tspan><tspan
         x="123"
         y="92.438402"
         id="tspan876"><tspan
           style="font-family:Arial;-inkscape-font-specification:Arial"
           id="tspan874">f&#252;r Entwicklung und Anwendung
</tspan></tspan><tspan
         x="123"
         y="105.89525"
         id="tspan880"><tspan
           style="font-family:Arial;-inkscape-font-specification:Arial"
           id="tspan878">umweltfreundlicher Technik GmbH</tspan></tspan></text>
  </g>
</svg>
